PathFileType	4	(X/Y/Z)	/Users/itak/Documents/Research/Walk-IL/dataset/trc/00508_00183.trc
DataRate	CameraRate	NumFrames	NumMarkers	Units	OrigDataRate	OrigDataStartFrame	OrigNumFrames
100.000000	100.000000	4	54	mm	100.000000	0	461
Frame#	Time	RPSI			LPSI			L3			STRN			T10			C7			CLAV			RBAK			LBAK			LSHO			LUPA			LAEL			LAOL			LWTS			LWPS			LFRA			LIFD			LHPS			LHTS			RSHO			RUPA			RAEL			RAOL			RWTS			RWPS			RFRA			RIFD			RHTS			RHPS			RBHD			LFHD			RFHD			LBHD			LHIP			RHIP			RASI			LASI			LKNE			LTHI			LANK			LTIP			LTOE			LMT1			LMT5			LHEE			RKNE			RTHI			RANK			RTIP			RTOE			RMT1			RMT5			RHEE			*53			
		X1	Y1	Z1	X2	Y2	Z2	X3	Y3	Z3	X4	Y4	Z4	X5	Y5	Z5	X6	Y6	Z6	X7	Y7	Z7	X8	Y8	Z8	X9	Y9	Z9	X10	Y10	Z10	X11	Y11	Z11	X12	Y12	Z12	X13	Y13	Z13	X14	Y14	Z14	X15	Y15	Z15	X16	Y16	Z16	X17	Y17	Z17	X18	Y18	Z18	X19	Y19	Z19	X20	Y20	Z20	X21	Y21	Z21	X22	Y22	Z22	X23	Y23	Z23	X24	Y24	Z24	X25	Y25	Z25	X26	Y26	Z26	X27	Y27	Z27	X28	Y28	Z28	X29	Y29	Z29	X30	Y30	Z30	X31	Y31	Z31	X32	Y32	Z32	X33	Y33	Z33	X34	Y34	Z34	X35	Y35	Z35	X36	Y36	Z36	X37	Y37	Z37	X38	Y38	Z38	X39	Y39	Z39	X40	Y40	Z40	X41	Y41	Z41	X42	Y42	Z42	X43	Y43	Z43	X44	Y44	Z44	X45	Y45	Z45	X46	Y46	Z46	X47	Y47	Z47	X48	Y48	Z48	X49	Y49	Z49	X50	Y50	Z50	X51	Y51	Z51	X52	Y52	Z52	X53	Y53	Z53	X54	Y54	Z54	

1	0	-1187.136108398438	971.5360717773438	-503.7911071777344	-1118.638427734375	975.0679321289062	-606.4559936523438	-1164.939208984375	1032.466430664062	-564.189208984375	-973.2395629882812	1204.0908203125	-454.1641235351562	-1182.697021484375	1139.498779296875	-568.933837890625	-1146.778686523438	1370.099243164062	-543.7723388671875	-1007.352661132812	1297.898681640625	-472.3869934082031	-1225.746459960938	1246.246948242188	-490.1590576171875	-1129.657104492188	1316.94287109375	-630.75390625	-1012.06396484375	1366.261108398438	-653.4994506835938	-998.4990844726562	1241.37841796875	-716.0845336914062	-985.4495849609375	1031.878784179688	-740.5035400390625	-1077.761108398438	1023.413208007812	-703.5287475585938	-914.1785278320312	844.6646728515625	-670.6902465820312	-971.2923583984375	808.32666015625	-736.3411254882812	-969.4232177734375	947.7628173828125	-736.4258422851562	-913.848388671875	688.6863403320312	-657.5137939453125	-948.8848876953125	754.7335205078125	-724.002197265625	-897.449951171875	766.3358764648438	-686.1232299804688	-1167.8310546875	1364.164306640625	-387.4159851074219	-1210.718505859375	1296.821411132812	-347.0868530273438	-1231.246337890625	1028.497680664062	-314.2113647460938	-1257.9912109375	1013.434326171875	-373.138671875	-1122.48095703125	831.6828002929688	-295.32275390625	-1209.515625	806.4979858398438	-284.7724304199219	-1231.626831054688	974.5654296875	-306.7771301269531	-1118.5517578125	670.734375	-293.5106506347656	-1117.371704101562	737.3101196289062	-267.50634765625	-1187.578125	733.7332763671875	-275.4567260742188	-1173.238891601562	1512.849609375	-466.5912170410156	-1004.054870605469	1605.57373046875	-522.1376342773438	-1075.331665039062	1595.6044921875	-416.8356628417969	-1095.892211914062	1517.392822265625	-606.0471801757812	-955.8775024414062	899.698486328125	-657.54345703125	-1165.045288085938	869.757080078125	-344.6958618164062	-1048.522583007812	911.899658203125	-342.844970703125	-917.3768920898438	929.5682373046875	-546.5770874023438	-974.5407104492188	476.7023315429688	-643.6442260742188	-948.3956298828125	634.39306640625	-643.9354858398438	-1042.745727539062	45.76390838623047	-679.238037109375	-1000.686584472656	332.5846252441406	-669.688232421875	-911.2477416992188	39.39802169799805	-519.4711303710938	-993.240478515625	44.02474975585938	-536.88427734375	-944.4946899414062	45.15296936035156	-626.1682739257812	-1115.765502929688	37.92048645019531	-653.8677368164062	-1167.806274414062	482.864990234375	-370.5998229980469	-1159.661376953125	745.4652099609375	-331.6782836914062	-1213.50390625	50.32313919067383	-426.7118530273438	-1165.596313476562	339.9854431152344	-382.772216796875	-1021.06884765625	43.23984909057617	-354.0489807128906	-1056.386962890625	47.20137786865234	-421.2675170898438	-1126.068725585938	48.60318374633789	-353.3751525878906	-1231.573120117188	38.20444869995117	-495.2653503417969	nan	nan	nan	
2	0.01	-1187.223510742188	971.5574340820312	-503.7948913574219	-1118.3447265625	974.8019409179688	-606.2564086914062	-1165.061767578125	1032.545776367188	-564.1146850585938	-973.2680053710938	1204.0712890625	-454.1636962890625	-1182.734008789062	1139.54638671875	-568.8652954101562	-1146.76025390625	1370.130981445312	-543.734130859375	-1007.380859375	1297.884155273438	-472.3345642089844	-1225.762451171875	1246.270629882812	-490.1066284179688	-1129.718505859375	1316.965942382812	-630.6902465820312	-1012.127258300781	1366.290649414062	-653.4251098632812	-998.6130981445312	1241.417114257812	-716.0218505859375	-985.6012573242188	1031.921875	-740.4887084960938	-1077.854614257812	1023.43310546875	-703.4932250976562	-914.2783203125	844.689208984375	-670.71826171875	-971.3651123046875	808.33056640625	-736.3414916992188	-969.5121459960938	947.7786254882812	-736.4019775390625	-913.873291015625	688.6998291015625	-657.5111083984375	-948.9852905273438	754.7083129882812	-724.0199584960938	-897.473388671875	766.4007568359375	-686.1301879882812	-1167.818237304688	1364.165893554688	-387.3293151855469	-1210.705444335938	1296.825927734375	-347.0172729492188	-1231.257690429688	1028.509765625	-314.1099243164062	-1258.024780273438	1013.468139648438	-373.0071716308594	-1122.55517578125	831.646728515625	-295.2706909179688	-1209.605102539062	806.5086059570312	-284.6978759765625	-1231.65380859375	974.5733642578125	-306.6702270507812	-1118.739379882812	670.6989135742188	-293.418701171875	-1117.479125976562	737.2598876953125	-267.4897766113281	-1187.688842773438	733.713134765625	-275.4107055664062	-1173.208740234375	1512.882080078125	-466.5077819824219	-1003.952087402344	1605.574584960938	-522.017578125	-1075.231689453125	1595.614379882812	-416.726806640625	-1095.794677734375	1517.455078125	-605.9888305664062	-955.981689453125	899.7108154296875	-657.5833129882812	-1165.450561523438	869.711669921875	-344.8294982910156	-1048.658935546875	911.8604736328125	-342.8259582519531	-917.4396362304688	929.5620727539062	-546.575927734375	-974.5772094726562	476.7160034179688	-643.6388549804688	-948.4356079101562	634.3981323242188	-643.9906005859375	-1042.750122070312	45.76929473876953	-679.2363891601562	-1000.626831054688	332.5575561523438	-669.6702880859375	-911.2381591796875	39.40065765380859	-519.466796875	-993.2453002929688	44.01736068725586	-536.8814697265625	-944.4966430664062	45.15192031860352	-626.1656494140625	-1115.757080078125	37.9077262878418	-653.8734130859375	-1167.946533203125	482.8607788085938	-370.6242065429688	-1159.57958984375	745.32861328125	-331.6074523925781	-1213.539916992188	50.32566452026367	-426.6586303710938	-1165.720703125	339.9669494628906	-382.827392578125	-1021.081420898438	43.25471878051758	-354.0406494140625	-1056.400512695312	47.21969985961914	-421.267578125	-1126.086791992188	48.59419250488281	-353.3621826171875	-1231.588134765625	38.2011833190918	-495.2587585449219	nan	nan	nan	
3	0.02	-1187.332641601562	971.5869140625	-503.7979736328125	-1118.03125	974.5195922851562	-606.0425415039062	-1165.191040039062	1032.629638671875	-564.0304565429688	-973.3032836914062	1204.048706054688	-454.1632690429688	-1182.775146484375	1139.605712890625	-568.7857055664062	-1146.738403320312	1370.168823242188	-543.6783447265625	-1007.410766601562	1297.869384765625	-472.2747802734375	-1225.784057617188	1246.300537109375	-490.0342407226562	-1129.794311523438	1316.997192382812	-630.6060791015625	-1012.19677734375	1366.329833984375	-653.3328857421875	-998.7537231445312	1241.468017578125	-715.9459228515625	-985.7723388671875	1031.974487304688	-740.4732666015625	-1077.988037109375	1023.46826171875	-703.4508666992188	-914.4044799804688	844.7230834960938	-670.7533569335938	-971.4550170898438	808.3424682617188	-736.341552734375	-969.6138305664062	947.8007202148438	-736.3759155273438	-913.9022216796875	688.7167358398438	-657.5068969726562	-949.0983276367188	754.6633911132812	-724.0380859375	-897.5061645507812	766.4929809570312	-686.1319580078125	-1167.802978515625	1364.16748046875	-387.2183227539062	-1210.690673828125	1296.8310546875	-346.9279479980469	-1231.281127929688	1028.525268554688	-313.9822387695312	-1258.067749023438	1013.505493164062	-372.8524780273438	-1122.660278320312	831.5986328125	-295.1915283203125	-1209.724731445312	806.5221557617188	-284.6007385253906	-1231.694580078125	974.5852661132812	-306.5338439941406	-1118.974365234375	670.654052734375	-293.3136291503906	-1117.62060546875	737.2015991210938	-267.4623718261719	-1187.825073242188	733.6882934570312	-275.3574523925781	-1173.164184570312	1512.92529296875	-466.3960571289062	-1003.83154296875	1605.5703125	-521.8778076171875	-1075.100830078125	1595.628784179688	-416.5883483886719	-1095.695068359375	1517.52490234375	-605.8978271484375	-956.076904296875	899.7368774414062	-657.6122436523438	-1165.943481445312	869.6600341796875	-344.9881286621094	-1048.825317382812	911.8145751953125	-342.8020629882812	-917.5166015625	929.5558471679688	-546.572021484375	-974.616455078125	476.7291870117188	-643.6304931640625	-948.4798583984375	634.4069213867188	-644.0394287109375	-1042.755859375	45.77510070800781	-679.2335205078125	-1000.575317382812	332.534423828125	-669.6510009765625	-911.2280883789062	39.40309906005859	-519.4635620117188	-993.2499389648438	44.01004409790039	-536.8779907226562	-944.4996337890625	45.15067291259766	-626.1629638671875	-1115.747680664062	37.89349365234375	-653.87939453125	-1168.120849609375	482.8533630371094	-370.6520385742188	-1159.466430664062	745.144775390625	-331.5149841308594	-1213.580688476562	50.32698059082031	-426.6007385253906	-1165.88037109375	339.9534912109375	-382.8837890625	-1021.096740722656	43.27194595336914	-354.0301208496094	-1056.414916992188	47.24486923217773	-421.2653503417969	-1126.10693359375	48.58561325073242	-353.3487548828125	-1231.602172851562	38.19482803344727	-495.2499694824219	nan	nan	nan	
4	0.03	-1187.458251953125	971.624267578125	-503.8016967773438	-1117.745361328125	974.2611083984375	-605.8424072265625	-1165.313232421875	1032.709106445312	-563.9450073242188	-973.3436889648438	1204.02392578125	-454.1618041992188	-1182.817016601562	1139.673217773438	-568.701171875	-1146.715942382812	1370.2099609375	-543.6008911132812	-1007.43994140625	1297.85546875	-472.2107849121094	-1225.810302734375	1246.33544921875	-489.9431762695312	-1129.878662109375	1317.035034179688	-630.5028076171875	-1012.26611328125	1366.378173828125	-653.226806640625	-998.9139404296875	1241.529663085938	-715.8616333007812	-985.9479370117188	1032.032592773438	-740.4584350585938	-1078.15869140625	1023.519775390625	-703.402587890625	-914.5493774414062	844.7665405273438	-670.7919921875	-971.55908203125	808.3652954101562	-736.3408813476562	-969.7200927734375	947.8297119140625	-736.3502197265625	-913.9332885742188	688.7371215820312	-657.5018920898438	-949.2132568359375	754.5972900390625	-724.0548095703125	-897.5491333007812	766.612548828125	-686.125	-1167.786010742188	1364.169067382812	-387.0869445800781	-1210.6748046875	1296.836669921875	-346.8209228515625	-1231.320068359375	1028.543579101562	-313.8331909179688	-1258.118896484375	1013.5419921875	-372.6871948242188	-1122.79833984375	831.5398559570312	-295.0821533203125	-1209.872192382812	806.5383911132812	-284.4845581054688	-1231.7509765625	974.6016845703125	-306.3733825683594	-1119.244384765625	670.6016845703125	-293.2048034667969	-1117.79248046875	737.1396484375	-267.4226989746094	-1187.9833984375	733.6610717773438	-275.2972412109375	-1173.103881835938	1512.979736328125	-466.2563781738281	-1003.704467773438	1605.558349609375	-521.7291259765625	-1074.942504882812	1595.648803710938	-416.4255981445312	-1095.604248046875	1517.596069335938	-605.7744140625	-956.154296875	899.7763671875	-657.6264038085938	-1166.479858398438	869.60986328125	-345.1520080566406	-1049.01171875	911.7655639648438	-342.7740478515625	-917.6028442382812	929.5505981445312	-546.565185546875	-974.6533203125	476.7403564453125	-643.6180419921875	-948.5245361328125	634.4193725585938	-644.0753173828125	-1042.761962890625	45.7804069519043	-679.2294311523438	-1000.537536621094	332.5158996582031	-669.630126953125	-911.218994140625	39.40462112426758	-519.46142578125	-993.2537231445312	44.00384140014648	-536.8738403320312	-944.5029907226562	45.14950180053711	-626.1605834960938	-1115.739135742188	37.88026809692383	-653.8844604492188	-1168.320922851562	482.8432006835938	-370.683349609375	-1159.325439453125	744.9191284179688	-331.4056091308594	-1213.621704101562	50.3258171081543	-426.5451965332031	-1166.068481445312	339.9481811523438	-382.9367065429688	-1021.113220214844	43.29067611694336	-354.0174255371094	-1056.429077148438	47.27598190307617	-421.2604064941406	-1126.126953125	48.57874298095703	-353.3360900878906	-1231.613403320312	38.18522644042969	-495.2398681640625	nan	nan	nan	
